<?xml version="1.0" standalone="no"?>
<!DOCTYPE svg PUBLIC "-//W3C//DTD SVG 20010904//EN"
 "http://www.w3.org/TR/2001/REC-SVG-20010904/DTD/svg10.dtd">
<svg version="1.0" xmlns="http://www.w3.org/2000/svg"
 width="500.000000pt" height="500.000000pt" viewBox="0 0 500.000000 500.000000"
 preserveAspectRatio="xMidYMid meet">

<g transform="translate(0.000000,500.000000) scale(0.100000,-0.100000)"
fill="#000000" stroke="none">
<path d="M1425 3919 c-32 -32 -56 -61 -53 -65 14 -13 98 -17 113 -4 16 13 23
132 8 128 -5 -1 -35 -27 -68 -59z"/>
<path d="M2474 3815 c-4 -8 -4 -28 -2 -45 2 -16 1 -27 -3 -25 -4 3 -10 -6 -13
-19 -4 -16 -20 -31 -46 -42 -44 -19 -57 -43 -41 -72 8 -15 6 -23 -10 -38 -26
-23 -49 -78 -49 -115 0 -17 -10 -37 -25 -51 -24 -22 -69 -95 -81 -131 -5 -15
-16 -17 -58 -15 -48 3 -54 0 -96 -39 l-44 -41 -33 29 c-19 16 -39 26 -48 23
-8 -4 -15 -1 -15 5 0 6 -17 11 -40 11 -22 0 -40 -5 -40 -11 0 -5 -3 -8 -7 -6
-5 3 -29 2 -55 -2 -31 -5 -49 -4 -51 3 -5 16 -43 -12 -143 -108 -63 -60 -96
-86 -114 -86 -14 0 -56 -3 -95 -6 l-70 -6 114 115 c112 113 113 115 95 136
-10 11 -25 21 -34 21 -16 0 -370 -344 -370 -360 0 -5 12 -7 28 -5 29 5 310 33
657 65 121 11 308 29 415 40 107 11 256 25 330 31 207 17 239 26 240 65 0 6
11 21 25 34 14 13 25 29 25 36 0 7 25 40 56 73 l56 61 -27 32 c-15 18 -93 103
-174 188 -81 85 -171 181 -199 213 -39 43 -54 54 -58 42z m-1 -247 l-4 -153
-86 -82 c-56 -53 -91 -79 -101 -75 -10 3 -13 1 -8 -6 4 -7 3 -12 -3 -12 -17 0
-23 20 -11 35 6 8 9 23 6 33 -5 13 1 22 19 30 15 7 25 20 25 32 0 11 9 29 20
40 14 14 20 33 20 67 0 34 7 55 25 79 16 20 25 46 25 68 0 29 6 38 35 56 19
12 35 26 35 31 0 5 2 9 3 9 2 0 2 -69 0 -152z"/>
<path d="M1166 3754 l-59 -65 61 2 62 2 0 64 c0 34 -1 63 -2 62 -2 0 -30 -30
-62 -65z"/>
<path d="M2843 3774 c19 -23 23 -39 6 -28 -8 5 -8 1 0 -14 6 -12 16 -24 21
-27 6 -4 7 -11 4 -17 -4 -6 -2 -8 3 -5 6 4 16 0 22 -7 8 -10 9 -16 1 -21 -5
-3 -10 -15 -10 -26 0 -10 -4 -19 -10 -19 -21 0 -8 -26 33 -70 23 -25 55 -61
71 -80 l28 -34 29 32 c29 33 37 69 20 100 -5 9 -57 64 -115 122 -112 110 -132
129 -103 94z"/>
<path d="M3300 3675 l0 -55 65 0 66 0 -3 -57 -3 -58 -65 -5 -65 -5 -3 -61 -3
-61 -62 -9 -62 -9 -5 -65 -5 -65 -57 -3 -58 -3 0 -47 c1 -45 4 -49 54 -89 29
-24 58 -43 63 -43 23 0 52 47 55 90 3 43 5 45 38 50 34 5 35 6 37 53 1 27 4
51 7 54 2 3 32 7 65 10 l61 6 0 47 0 47 76 5 c105 7 109 12 106 151 l-2 67
-85 0 -85 0 0 55 0 55 -65 0 -65 0 0 -55z m223 -100 c1 -5 -6 -11 -15 -13 -11
-2 -18 3 -18 13 0 17 30 18 33 0z"/>
<path d="M1440 3685 c-8 -9 -8 -15 -2 -15 12 0 26 19 19 26 -2 2 -10 -2 -17
-11z"/>
<path d="M2850 3640 c-9 -17 -8 -20 10 -20 13 0 20 7 20 20 0 11 -4 20 -10 20
-5 0 -14 -9 -20 -20z"/>
<path d="M891 3624 l-24 -24 26 0 c22 0 27 5 27 25 0 29 2 29 -29 -1z"/>
<path d="M1200 3485 c-14 -15 -39 -34 -57 -41 -51 -22 -49 -34 6 -34 27 0 53
-5 57 -11 3 -6 -10 -28 -30 -48 -20 -21 -33 -40 -30 -44 4 -4 28 -7 54 -7 42
0 50 4 99 54 l53 54 -12 52 -12 52 -42 -41 c-23 -23 -45 -41 -48 -41 -4 0 -8
18 -10 41 l-3 41 -25 -27z"/>
<path d="M3520 3313 c1 -5 30 -39 65 -78 l65 -70 0 47 c0 65 -36 108 -91 108
-21 0 -39 -3 -39 -7z"/>
<path d="M927 3283 c-12 -11 -8 -31 8 -37 11 -4 15 1 15 19 0 24 -10 32 -23
18z"/>
<path d="M4142 3078 c-7 -7 -12 -40 -12 -85 0 -69 1 -73 23 -73 42 0 48 12 45
91 -3 65 -5 74 -23 77 -11 1 -26 -3 -33 -10z"/>
<path d="M3867 2870 c-14 -11 -29 -29 -32 -40 -10 -32 -25 -23 -25 15 0 19 -4
35 -10 35 -6 0 -10 -47 -10 -120 l0 -121 63 7 c34 3 66 10 70 14 5 4 6 58 2
119 -8 120 -13 127 -58 91z"/>
<path d="M3027 2843 c-3 -4 8 -163 23 -353 16 -190 27 -346 26 -347 -1 -1 -13
41 -25 95 -26 105 -34 122 -62 122 -10 0 -24 8 -31 18 -32 45 -63 35 -74 -24
-7 -38 -7 -38 -35 -23 -14 7 -50 5 -129 -7 -60 -10 -108 -20 -106 -22 3 -2 52
1 111 7 78 8 110 8 124 -1 29 -18 48 -3 56 41 8 47 16 51 39 17 8 -14 26 -26
38 -28 20 -3 27 -17 55 -127 17 -68 37 -129 42 -134 6 -6 11 -32 11 -58 l0
-46 -62 -7 c-129 -14 -129 -14 -126 -55 2 -29 7 -36 23 -34 11 1 62 5 113 9
l92 7 0 238 c0 232 -1 239 -20 239 -15 0 -20 -7 -21 -27 -1 -16 -7 40 -14 122
-27 305 -27 303 16 106 21 -101 44 -190 50 -198 6 -7 20 -13 30 -13 11 0 28
-6 40 -12 17 -11 22 -10 35 6 8 11 14 30 14 42 0 34 16 37 43 10 l24 -24 89
14 c129 20 132 23 12 17 -102 -5 -107 -4 -118 16 -7 15 -19 21 -33 19 -20 -3
-27 -15 -43 -76 -2 -7 -9 -10 -15 -6 -8 5 -8 9 1 14 7 4 -5 7 -26 6 l-39 -1
-18 75 c-9 41 -32 144 -50 229 -29 138 -45 179 -60 154z m70 -625 c-2 -13 -4
-5 -4 17 -1 22 1 32 4 23 2 -10 2 -28 0 -40z m10 -120 c-2 -13 -4 -5 -4 17 -1
22 1 32 4 23 2 -10 2 -28 0 -40z"/>
<path d="M3920 2464 c-63 -7 -118 -13 -122 -13 -5 -1 -8 -55 -8 -121 0 -136
-7 -127 94 -114 l46 7 0 108 c0 71 4 110 12 115 6 4 44 9 85 12 40 3 76 9 79
13 7 11 -43 10 -186 -7z"/>
<path d="M4130 2152 l0 -89 -32 -6 c-18 -2 -124 -13 -235 -23 -153 -14 -203
-22 -203 -32 0 -7 17 -31 38 -53 l38 -41 219 17 c121 10 226 19 233 21 9 2 12
39 14 134 0 71 1 136 2 143 1 7 -14 13 -36 15 l-38 3 0 -89z"/>
<path d="M3383 1996 l-93 -9 0 -40 0 -40 90 6 c49 3 94 8 100 12 12 7 14 72 3
77 -5 2 -50 0 -100 -6z"/>
<path d="M1603 1943 c-27 -10 -11 -23 27 -23 29 0 40 4 40 15 0 15 -39 20 -67
8z"/>
<path d="M2700 1931 l-65 -6 -3 -39 -3 -39 73 7 c40 4 74 8 75 9 9 10 5 77 -4
75 -5 -1 -37 -4 -73 -7z"/>
<path d="M2228 1893 c-13 -3 -18 -14 -18 -38 l0 -33 63 5 c65 6 77 14 77 51 0
20 -4 22 -52 21 -29 -1 -61 -3 -70 -6z"/>
<path d="M4359 1848 c-25 -29 -58 -70 -73 -90 l-28 -38 51 0 c65 0 86 11 100
51 13 37 15 129 3 129 -5 0 -28 -24 -53 -52z"/>
<path d="M1865 1859 c-195 -21 -182 -18 -188 -47 -8 -43 4 -49 80 -40 37 4
105 11 151 14 l82 7 0 38 c0 44 9 42 -125 28z"/>
<path d="M1430 1813 c-112 -9 -120 -12 -120 -45 0 -29 2 -30 31 -24 17 3 51 6
75 6 39 0 46 3 55 27 12 32 4 39 -41 36z"/>
<path d="M3219 1816 c-2 -2 -74 -9 -159 -15 -85 -6 -209 -16 -275 -21 -203
-16 -512 -39 -685 -50 -279 -17 -310 -21 -310 -34 0 -6 32 -43 71 -81 118
-117 147 -166 149 -257 0 -10 5 -18 10 -18 16 0 12 123 -5 163 -30 72 -12 152
40 175 36 17 96 15 123 -4 74 -52 67 -194 -11 -220 -20 -7 -18 -9 13 -14 27
-4 36 -10 38 -27 5 -36 -55 -32 -103 7 -68 54 -51 30 39 -55 l89 -84 21 32
c44 65 135 86 196 45 50 -34 74 -90 78 -179 6 -124 -29 -174 -132 -189 l-51
-8 46 -1 c28 0 52 -7 59 -16 21 -25 44 -17 93 33 37 37 47 55 47 80 0 48 22
84 85 137 30 26 58 58 61 71 14 55 -52 73 -106 28 -30 -25 -31 -26 -50 -9 -27
24 -25 36 9 69 51 49 144 54 193 9 22 -20 14 -26 117 97 68 80 71 87 71 135 0
81 -7 95 -44 92 -25 -2 -32 2 -34 20 -3 20 2 22 82 28 47 4 92 5 101 1 28 -10
16 -35 -20 -42 -33 -6 -35 -8 -35 -48 l1 -41 29 35 29 35 1 -35 c0 -19 -11
-55 -25 -79 -14 -23 -25 -49 -25 -57 0 -8 -8 -14 -18 -14 -10 0 -34 -16 -53
-36 -32 -35 -33 -36 -9 -31 14 4 32 7 41 7 14 0 344 323 361 355 8 13 -1 15
-65 15 -40 0 -76 -2 -78 -4z m-349 -91 c19 -23 -5 -48 -32 -34 -27 15 -70 3
-66 -18 2 -10 22 -21 52 -28 57 -15 76 -35 76 -80 0 -59 -74 -90 -143 -61 -37
15 -44 29 -28 55 7 11 13 11 32 -3 32 -22 66 -20 79 4 12 23 -3 33 -62 44 -63
11 -89 75 -48 116 25 25 120 29 140 5z m-190 -14 c0 -23 -19 -31 -69 -31 -36
0 -38 -2 -33 -26 4 -23 8 -25 51 -22 41 3 46 1 49 -19 3 -20 -2 -22 -45 -25
-44 -3 -48 -5 -48 -28 0 -23 4 -25 58 -28 47 -2 57 -6 57 -21 0 -22 -35 -31
-115 -31 l-52 0 -6 83 c-4 45 -7 99 -7 119 0 42 6 44 103 47 50 1 57 -1 57
-18z m-216 -18 c3 -10 6 -55 8 -101 1 -72 -1 -86 -19 -104 -29 -28 -104 -36
-138 -14 -33 22 -41 43 -49 144 l-6 82 28 0 29 0 7 -86 c3 -48 9 -90 12 -95 9
-14 60 -10 74 6 8 10 10 38 5 100 l-7 85 25 0 c16 0 28 -7 31 -17z"/>
<path d="M928 1763 c-27 -2 -48 -8 -48 -13 0 -5 16 -21 35 -35 36 -28 56 -28
133 -2 23 8 32 17 32 34 0 21 -4 23 -52 21 -29 -1 -74 -3 -100 -5z"/>
<path d="M1130 1641 c-42 -6 -45 -8 -45 -36 0 -30 0 -30 63 -33 60 -3 63 -2
72 24 20 53 9 58 -90 45z"/>
<path d="M2072 1628 c-15 -15 -16 -92 -2 -119 13 -23 62 -26 84 -3 18 18 21
85 6 115 -12 22 -68 27 -88 7z"/>
<path d="M4060 1590 c-10 -6 -12 -12 -4 -20 16 -16 214 -1 214 17 0 10 -22 13
-97 13 -54 0 -105 -5 -113 -10z"/>
<path d="M3878 1430 c-41 -41 -40 -50 4 -50 32 0 41 14 36 58 l-3 30 -37 -38z"/>
<path d="M3565 1430 l-50 -5 -3 -48 -3 -48 58 3 58 3 3 44 c2 24 0 47 -5 50
-4 4 -30 4 -58 1z"/>
<path d="M2988 1373 c7 -3 16 -2 19 1 4 3 -2 6 -13 5 -11 0 -14 -3 -6 -6z"/>
<path d="M4126 1364 c-3 -8 -3 -26 0 -40 5 -18 13 -24 34 -24 31 0 46 30 29
62 -12 22 -55 24 -63 2z"/>
<path d="M2843 1347 c-11 -12 -23 -39 -25 -59 l-4 -38 29 35 c15 19 35 38 43
43 13 7 12 11 -4 25 -17 16 -20 16 -39 -6z"/>
<path d="M2358 1298 c-37 -13 -52 -66 -38 -139 17 -89 74 -125 121 -78 19 19
21 30 17 101 -3 73 -6 82 -31 104 -31 27 -31 27 -69 12z"/>
<path d="M3090 1295 c-7 -9 -8 -15 -2 -15 5 0 12 7 16 15 3 8 4 15 2 15 -2 0
-9 -7 -16 -15z"/>
<path d="M1032 1272 c-8 -6 -12 -23 -10 -43 3 -31 6 -34 41 -37 l38 -3 -3 43
c-3 38 -6 43 -28 46 -14 1 -31 -2 -38 -6z"/>
<path d="M1997 1240 l-34 -29 -24 25 c-13 14 -32 24 -44 22 -17 -3 -20 -11
-23 -65 l-3 -63 -47 0 c-26 0 -53 -4 -59 -8 -16 -10 -28 -145 -19 -196 7 -35
8 -36 55 -36 58 0 69 11 73 70 2 36 7 45 23 48 55 8 65 13 65 33 0 12 28 49
70 90 70 70 84 101 58 127 -20 20 -56 13 -91 -18z"/>
<path d="M2190 1252 c0 -10 33 -42 43 -42 4 0 7 11 7 25 0 20 -5 25 -25 25
-14 0 -25 -4 -25 -8z"/>
<path d="M3310 1225 c0 -13 -4 -27 -10 -30 -5 -3 -10 -13 -10 -21 0 -12 10
-14 43 -12 42 3 42 3 45 45 3 41 3 41 -32 41 -31 0 -36 -3 -36 -23z"/>
<path d="M2966 1221 c-11 -4 4 -7 37 -7 30 1 50 4 44 8 -15 10 -56 9 -81 -1z"/>
<path d="M2764 1188 l-19 -23 23 19 c21 18 27 26 19 26 -2 0 -12 -10 -23 -22z"/>
<path d="M2704 1138 l-19 -23 23 19 c21 18 27 26 19 26 -2 0 -12 -10 -23 -22z"/>
<path d="M3583 1127 c23 -19 22 -23 -13 -36 -23 -7 -30 -16 -30 -35 0 -24 3
-26 50 -26 44 0 50 3 56 24 3 13 4 37 2 52 -3 26 -7 29 -43 32 -36 2 -38 1
-22 -11z"/>
<path d="M2064 1068 l-29 -33 33 29 c30 28 37 36 29 36 -2 0 -16 -15 -33 -32z"/>
<path d="M3080 1074 l-25 -14 26 0 c15 0 29 7 33 15 6 18 -1 18 -34 -1z"/>
<path d="M2927 1069 c7 -7 15 -10 18 -7 3 3 -2 9 -12 12 -14 6 -15 5 -6 -5z"/>
<path d="M2988 1053 c12 -2 30 -2 40 0 9 3 -1 5 -23 4 -22 0 -30 -2 -17 -4z"/>
<path d="M2755 1030 c-13 -6 -1 -7 35 -3 30 3 57 7 59 9 9 8 -75 2 -94 -6z"/>
<path d="M1202 998 c-21 -25 -22 -29 -7 -34 22 -9 37 8 33 38 l-3 25 -23 -29z"/>
<path d="M2290 1026 c0 -2 8 -10 18 -17 15 -13 16 -12 3 4 -13 16 -21 21 -21
13z"/>
<path d="M2693 1023 c9 -2 23 -2 30 0 6 3 -1 5 -18 5 -16 0 -22 -2 -12 -5z"/>
<path d="M2618 1013 c7 -3 16 -2 19 1 4 3 -2 6 -13 5 -11 0 -14 -3 -6 -6z"/>
<path d="M3368 995 c-9 -17 -28 -37 -42 -45 -40 -21 -33 -40 14 -40 47 0 53 9
48 71 l-3 44 -17 -30z"/>
<path d="M3335 1000 c4 -6 11 -8 16 -5 14 9 11 15 -7 15 -8 0 -12 -5 -9 -10z"/>
<path d="M2135 960 c-13 -6 -5 -7 25 -3 25 3 47 7 49 9 9 8 -55 2 -74 -6z"/>
<path d="M2073 953 c9 -2 23 -2 30 0 6 3 -1 5 -18 5 -16 0 -22 -2 -12 -5z"/>
<path d="M1983 943 c9 -2 23 -2 30 0 6 3 -1 5 -18 5 -16 0 -22 -2 -12 -5z"/>
</g>
</svg>
